<svg xmlns="http://www.w3.org/2000/svg" width="1000" height="115" viewBox="0 0 1000 115">
  <defs>
    <style>
      .cls-1 {
        fill: #410f18;
        fill-rule: evenodd;
      }
    </style>
  </defs>
  <path id="Forme_1" data-name="Forme 1" class="cls-1" d="M972,65c-0.372,2.076-.242,1.924-1,3-9.843,6.638-44.774,1.132-61,1v1c2.467,1.295.681-.429,2,2H657c-4.693,3.164-34.232,1-45,1L492,72H408c-14.026,0-31.743,1.663-44-1H347c-13.891,0-31.2.782-44-2H262c-24.393,0-50.993-1.022-73-4-4.241-.574-12.129,2.275-18,1-15.875-3.447-33.594,2.351-49-1-12.8-2.784-28.494-2-43-2H63c-11.429-2.494-24.637-2.74-36-5-1.479-2.556-2.4-3.147-3-7,1.353-1.725,2.128-4.847,3-7,3.366-1.158,9.15-1.068,14-1,4.373-3.258,38.665-4.771,49-2,12.687,3.4,33.075,2,49,2h92c95.26,0,185.373,1.62,278,2l150,1c14.589,3.271,32.069-1.57,48,2,14.842,3.326,36.22,2,53,2H919c21.517,0,51.316-.879,57,15h-4Z"/>
</svg>
