<svg id="Calque_1" data-name="Calque 1" xmlns="http://www.w3.org/2000/svg" viewBox="0 0 268.39 15.27"><defs><style>.cls-1{fill:#fff;}</style></defs><title>Sans titre - 1</title><path class="cls-1" d="M268.16,7.07c.41.31.2,0-.06,0C256.57,4.78,245,2.49,233.48.33a24,24,0,0,0-5.93-.26c-14,.86-27.88,2.1-41.84,2.65Q142.54,4.39,99.36,5.44c-31.3.72-62.62,1-93.92,1.54C3.62,7,1.81,7.24,0,7.37c47.71,1.53,95.32,2.6,142.91,4,23.29.68,46.56,1.92,69.84,2.91,6.8.29,13.78,1.67,20.37.63C245,13,256.7,9.71,268.16,7.07Z"/><path d="M268.16,7.07c-11.46,2.64-23.14,6-35,7.82-6.59,1-13.57-.34-20.37-.63-23.28-1-46.55-2.23-69.84-2.91C95.32,10,47.71,8.9,0,7.37,1.81,7.24,3.62,7,5.44,7c31.3-.51,62.62-.82,93.92-1.54q43.19-1,86.35-2.72c14-.55,27.89-1.79,41.84-2.65a24,24,0,0,1,5.93.26C245,2.49,256.57,4.78,268.1,7,268.36,7.09,268.57,7.38,268.16,7.07Z"/></svg>